<svg width="24" height="24" viewBox="0 0 24 24" fill="none" xmlns="http://www.w3.org/2000/svg">
<path fill-rule="evenodd" clip-rule="evenodd" d="M12 2C10.3244 2 8.7199 2.67343 7.5387 3.86829C6.35789 5.06277 5.69658 6.68038 5.69658 8.36466C5.69658 11.4149 5.05158 13.3095 4.45716 14.4119C4.15878 14.9652 3.86836 15.328 3.66691 15.5431C3.56595 15.6509 3.4867 15.7223 3.43912 15.7624C3.41532 15.7825 3.39941 15.7947 3.39264 15.7998L3.39028 15.8016C3.06619 16.0269 2.92409 16.4358 3.03992 16.8139C3.15702 17.196 3.51029 17.457 3.91048 17.457H20.0895C20.4897 17.457 20.843 17.196 20.9601 16.8139C21.0759 16.4358 20.9338 16.0269 20.6097 15.8016L20.6074 15.7998C20.6006 15.7947 20.5847 15.7825 20.5609 15.7624C20.5133 15.7223 20.4341 15.6509 20.3331 15.5431C20.1316 15.328 19.8412 14.9652 19.5428 14.4119C18.9484 13.3095 18.3034 11.4149 18.3034 8.36466C18.3034 6.68038 17.6421 5.06277 16.4613 3.86829C15.2801 2.67343 13.6756 2 12 2ZM10.4249 19.2755C10.0993 19.2755 9.79851 19.4492 9.63601 19.7309C9.4735 20.0127 9.47403 20.3597 9.6374 20.641C9.87749 21.0543 10.2221 21.3974 10.6367 21.636C11.0514 21.8745 11.5214 22 11.9999 22C12.4784 22 12.9485 21.8745 13.3631 21.636C13.7777 21.3974 14.1223 21.0543 14.3624 20.641C14.5258 20.3597 14.5263 20.0127 14.3638 19.7309C14.2013 19.4492 13.9005 19.2755 13.5749 19.2755H10.4249Z" fill="#06161D"/>
</svg>
