<svg width="20" height="20" viewBox="0 0 20 20" fill="none" xmlns="http://www.w3.org/2000/svg">
<path d="M2.3797 0.667175C1.9068 0.194275 1.14008 0.194275 0.667175 0.667175C0.194275 1.14008 0.194275 1.9068 0.667175 2.3797L8.28748 10L0.667175 17.6203C0.194275 18.0932 0.194275 18.8599 0.667175 19.3328C1.14008 19.8057 1.9068 19.8057 2.3797 19.3328L10 11.7125L17.6203 19.3328C18.0932 19.8057 18.8599 19.8057 19.3328 19.3328C19.8057 18.8599 19.8057 18.0932 19.3328 17.6203L11.7125 10L19.3328 2.3797C19.8057 1.9068 19.8057 1.14008 19.3328 0.667175C18.8599 0.194275 18.0932 0.194275 17.6203 0.667175L10 8.28748L2.3797 0.667175Z" fill="#101010"/>
</svg>
