<svg width="24" height="24" viewBox="0 0 24 24" fill="none" xmlns="http://www.w3.org/2000/svg">
<path fill-rule="evenodd" clip-rule="evenodd" d="M20.5985 1C19.9616 1 19.3508 1.25265 18.9004 1.70237L9.22982 11.3804C9.16585 11.4444 9.12045 11.5246 9.09847 11.6123L8.20238 15.1916C8.11071 15.5578 8.4423 15.8896 8.80852 15.7982L12.3937 14.9031C12.4817 14.8812 12.5621 14.8356 12.6263 14.7714L22.2966 5.09373C22.5196 4.87105 22.6965 4.60669 22.8172 4.31575C22.9379 4.0248 23 3.71297 23 3.39805C23 3.08314 22.9379 2.7713 22.8172 2.48036C22.6965 2.18941 22.5196 1.92505 22.2966 1.70237C22.0736 1.47969 21.8089 1.30305 21.5175 1.18254C21.2262 1.06203 20.9139 1 20.5985 1ZM4 3C3.20435 3 2.44129 3.31607 1.87868 3.87868C1.31607 4.44129 1 5.20435 1 6V20C1 20.7957 1.31607 21.5587 1.87868 22.1213C2.44129 22.6839 3.20435 23 4 23H18C18.7957 23 19.5587 22.6839 20.1213 22.1213C20.6839 21.5587 21 20.7957 21 20V13C21 12.4477 20.5523 12 20 12C19.4477 12 19 12.4477 19 13V20C19 20.2652 18.8946 20.5196 18.7071 20.7071C18.5196 20.8946 18.2652 21 18 21H4C3.73478 21 3.48043 20.8946 3.29289 20.7071C3.10536 20.5196 3 20.2652 3 20V6C3 5.73478 3.10536 5.48043 3.29289 5.29289C3.48043 5.10536 3.73478 5 4 5H11C11.5523 5 12 4.55228 12 4C12 3.44772 11.5523 3 11 3H4Z" fill="#06161D"/>
</svg>
