<svg width="48" height="48" viewBox="0 0 628 534" fill="none" xmlns="http://www.w3.org/2000/svg">
<path d="M596.436 499.844C597.779 499.858 599.112 499.595 600.35 499.072C601.588 498.549 602.705 497.777 603.633 496.805C604.56 495.832 605.278 494.679 605.741 493.418C606.204 492.156 606.404 490.813 606.326 489.471C606.326 482.115 601.888 478.6 592.782 478.6H578.069V517.116H583.602V500.326H590.403L590.559 500.531L601.111 517.116H607.029L595.675 499.95L596.436 499.844ZM590.035 495.986H583.619V482.965H591.752C595.953 482.965 600.743 483.651 600.743 489.153C600.743 495.479 595.896 495.986 590.003 495.986M452.082 451.576H373.611V328.688C373.611 299.384 373.088 261.661 332.798 261.661C291.928 261.661 285.675 293.589 285.675 326.555V451.568H207.204V198.86H282.536V233.395H283.591C291.129 220.505 302.023 209.901 315.112 202.712C328.201 195.524 342.994 192.02 357.917 192.574C437.451 192.574 452.115 244.888 452.115 312.945L452.082 451.576ZM118.663 164.316C109.656 164.318 100.852 161.649 93.3622 156.646C85.8727 151.644 80.0347 144.533 76.5866 136.213C73.1385 127.892 72.235 118.736 73.9905 109.903C75.746 101.069 80.0816 92.9541 86.449 86.5844C92.8164 80.2147 100.93 75.8762 109.763 74.1176C118.596 72.3589 127.752 73.259 136.074 76.7042C144.395 80.1493 151.508 85.9847 156.513 93.4724C161.518 100.96 164.191 109.764 164.192 118.77C164.193 124.75 163.017 130.672 160.729 136.197C158.442 141.723 155.088 146.743 150.86 150.973C146.633 155.202 141.613 158.557 136.089 160.847C130.564 163.136 124.643 164.315 118.663 164.316ZM157.898 451.576H79.3457V198.86H157.898V451.576ZM491.203 0.369381H39.9142C29.6712 0.253789 19.8013 4.2095 12.4734 11.3673C5.14551 18.5251 0.959086 28.2993 0.834076 38.5422V491.703C0.954807 501.951 5.13855 511.732 12.4662 518.897C19.7939 526.062 29.6661 530.026 39.9142 529.917H491.203C501.471 530.045 511.371 526.093 518.728 518.928C526.084 511.763 530.296 501.971 530.438 491.703V38.5095C530.292 28.2463 526.077 18.4609 518.721 11.3033C511.364 4.14574 501.466 0.201326 491.203 0.336685" fill="#0A66C2"/>
<path d="M590.706 461.442C581.158 461.534 572.036 465.403 565.334 472.203C558.631 479.003 554.895 488.18 554.94 497.727C554.986 507.275 558.811 516.416 565.579 523.151C572.346 529.886 581.505 533.667 591.053 533.667C600.601 533.667 609.76 529.886 616.527 523.151C623.295 516.416 627.12 507.275 627.165 497.727C627.211 488.18 623.475 479.003 616.772 472.203C610.07 465.403 600.948 461.534 591.4 461.442H590.706ZM590.706 529.532C584.443 529.636 578.291 527.881 573.026 524.489C567.762 521.097 563.621 516.219 561.129 510.474C558.636 504.728 557.903 498.373 559.022 492.21C560.142 486.048 563.063 480.357 567.418 475.855C571.772 471.353 577.363 468.244 583.485 466.92C589.606 465.596 595.983 466.117 601.808 468.417C607.633 470.717 612.646 474.693 616.211 479.841C619.777 484.99 621.736 491.081 621.84 497.343V497.874C622.016 506.089 618.921 514.037 613.237 519.971C607.554 525.905 599.746 529.338 591.531 529.516H590.714" fill="#0A66C2"/>
</svg>
