<svg width="24" height="24" viewBox="0 0 24 24" fill="none" xmlns="http://www.w3.org/2000/svg">
<g opacity="0.4">
<path fill-rule="evenodd" clip-rule="evenodd" d="M4.00005 11C4.00005 7.13401 7.13405 4 11 4C14.866 4 18 7.13401 18 11C18 12.8861 17.2541 14.598 16.0411 15.8567C16.007 15.883 15.9742 15.9117 15.943 15.9429C15.9118 15.9741 15.883 16.0069 15.8568 16.041C14.5981 17.254 12.8862 18 11 18C7.13405 18 4.00005 14.866 4.00005 11ZM16.6178 18.0319C15.0781 19.2635 13.1251 20 11 20C6.02948 20 2.00005 15.9706 2.00005 11C2.00005 6.02944 6.02948 2 11 2C15.9706 2 20 6.02944 20 11C20 13.125 19.2636 15.078 18.032 16.6177L21.7072 20.2929C22.0978 20.6834 22.0978 21.3166 21.7072 21.7071C21.3167 22.0977 20.6835 22.0977 20.293 21.7071L16.6178 18.0319Z" fill="#06161D"/>
</g>
</svg>
