<svg width="48" height="48" viewBox="0 0 534 534" fill="none" xmlns="http://www.w3.org/2000/svg">
<path d="M448.353 0C495.278 0 533.333 38.0469 533.333 84.9882V448.353C533.333 495.278 495.278 533.333 448.353 533.333H84.9882C38.0557 533.333 0 495.279 0 448.353V84.9882C0 38.0469 38.055 0 84.9882 0H448.353Z" fill="#FFFC00"/>
<path d="M446.817 358.426C445.245 353.224 437.723 349.556 437.723 349.556C437.012 349.182 436.376 348.846 435.852 348.583C423.315 342.521 412.2 335.224 402.845 326.952C395.323 320.291 388.886 312.956 383.721 305.172C377.397 295.666 374.44 287.732 373.168 283.429C372.457 280.622 372.569 279.499 373.168 278.04C373.655 276.805 375.114 275.645 375.788 275.084C380.017 272.089 386.827 267.674 391.019 264.98C394.649 262.622 397.755 260.601 399.589 259.328C405.464 255.212 409.505 251.02 411.863 246.492C414.932 240.655 415.306 234.217 412.912 227.892C409.693 219.36 401.722 214.271 391.58 214.271C389.334 214.271 387.014 214.532 384.694 215.019C378.894 216.291 373.392 218.349 368.789 220.146C368.712 220.181 368.628 220.195 368.544 220.187C368.46 220.178 368.379 220.148 368.311 220.098C368.242 220.049 368.188 219.982 368.154 219.905C368.12 219.828 368.106 219.743 368.115 219.659C368.603 208.245 369.164 192.902 367.891 178.344C366.768 165.171 364.037 154.056 359.62 144.363C355.167 134.634 349.366 127.448 344.838 122.246C340.534 117.306 332.937 110.009 321.486 103.46C305.394 94.2537 287.056 89.5756 266.997 89.5756C246.976 89.5756 228.676 94.2537 212.546 103.46C200.421 110.383 192.674 118.205 189.157 122.246C184.628 127.448 178.828 134.634 174.374 144.363C169.921 154.057 167.227 165.134 166.104 178.344C164.832 192.977 165.356 207.086 165.879 219.66C165.879 220.034 165.542 220.296 165.168 220.146C160.565 218.349 155.064 216.291 149.263 215.019C146.98 214.532 144.66 214.271 142.377 214.271C132.273 214.271 124.302 219.36 121.046 227.892C118.651 234.217 119.025 240.654 122.094 246.492C124.489 251.02 128.493 255.211 134.368 259.328C136.165 260.601 139.308 262.622 142.939 264.98C147.018 267.637 153.642 271.94 157.908 274.896C158.432 275.271 160.228 276.618 160.79 278.04C161.388 279.537 161.501 280.66 160.715 283.654C159.405 287.995 156.448 295.854 150.236 305.172C145.072 312.994 138.635 320.291 131.113 326.953C121.757 335.223 110.642 342.521 98.1053 348.583C97.5066 348.883 96.7957 349.219 96.0469 349.669C96.0469 349.669 88.5623 353.486 87.1404 358.426C85.0449 365.723 90.6206 372.572 96.2722 376.239C105.553 382.227 116.854 385.446 123.404 387.204C125.237 387.691 126.884 388.14 128.381 388.589C129.316 388.889 131.674 389.786 132.685 391.096C133.957 392.743 134.107 394.764 134.556 397.047C135.267 400.901 136.876 405.654 141.629 408.947C146.868 412.54 153.492 412.802 161.913 413.138C170.707 413.475 181.634 413.887 194.171 418.041C199.972 419.95 205.248 423.206 211.312 426.948C224.035 434.769 239.865 444.5 266.885 444.5C293.942 444.5 309.885 434.732 322.683 426.873C328.746 423.168 333.948 419.95 339.637 418.078C352.173 413.925 363.1 413.513 371.895 413.176C380.316 412.839 386.939 412.615 392.179 408.984C397.268 405.467 398.728 400.227 399.402 396.298C399.776 394.352 400 392.593 401.123 391.171C402.096 389.936 404.266 389.075 405.277 388.738C406.811 388.252 408.533 387.803 410.441 387.279C416.991 385.521 425.223 383.462 435.216 377.811C447.266 370.963 448.089 362.58 446.817 358.426Z" fill="white"/>
<path d="M457.221 354.384C454.563 347.124 449.474 343.269 443.711 340.051C442.626 339.415 441.615 338.891 440.792 338.516C439.07 337.618 437.312 336.758 435.552 335.859C417.552 326.316 403.48 314.266 393.751 300.008C390.457 295.18 388.174 290.839 386.565 287.284C385.742 284.889 385.78 283.541 386.378 282.306C386.827 281.371 388.025 280.398 388.698 279.912C391.503 278.055 394.322 276.221 397.156 274.41C401.011 271.903 404.08 269.919 406.026 268.572C413.435 263.407 418.6 257.906 421.818 251.769C426.384 243.124 426.946 233.244 423.427 223.963C418.563 211.089 406.363 203.081 391.617 203.081C388.549 203.081 385.443 203.417 382.374 204.091C381.551 204.278 380.765 204.466 379.979 204.652C380.128 195.895 379.904 186.54 379.118 177.408C376.349 145.224 365.084 128.346 353.333 114.911C348.431 109.297 339.898 101.102 327.1 93.7667C309.249 83.5127 289.04 78.3482 266.997 78.3482C245.03 78.3482 224.821 83.5127 206.97 93.7301C194.096 101.065 185.564 109.297 180.699 114.874C168.948 128.309 157.683 145.187 154.914 177.371C154.129 186.503 153.941 195.858 154.053 204.615C153.268 204.428 152.444 204.241 151.659 204.054C148.622 203.387 145.523 203.048 142.415 203.043C127.67 203.043 115.47 211.052 110.605 223.926C107.087 233.206 107.648 243.086 112.214 251.731C115.433 257.869 120.634 263.37 128.007 268.535C129.99 269.919 133.022 271.903 136.876 274.372C138.971 275.72 142.003 277.703 144.997 279.686C145.446 279.986 147.055 281.183 147.616 282.306C148.253 283.578 148.253 284.963 147.317 287.508C145.745 290.989 143.462 295.255 140.244 299.97C130.701 313.929 117.042 325.755 99.6394 335.185C90.396 340.088 80.8158 343.344 76.7741 354.346C73.7052 362.655 75.7257 372.123 83.4728 380.094C86.0175 382.826 89.2359 385.258 93.2776 387.504C102.783 392.743 110.867 395.325 117.228 397.084C118.351 397.421 120.934 398.244 122.056 399.255C124.9 401.724 124.489 405.467 128.268 410.931C130.551 414.336 133.171 416.656 135.342 418.153C143.238 423.618 152.144 423.954 161.576 424.328C170.071 424.665 179.726 425.039 190.728 428.669C195.294 430.166 200.047 433.085 205.511 436.453C218.684 444.575 236.759 455.652 266.96 455.652C297.198 455.652 315.348 444.499 328.634 436.378C334.097 433.048 338.813 430.129 343.229 428.669C354.231 425.039 363.887 424.665 372.382 424.328C381.812 423.954 390.682 423.618 398.616 418.153C401.92 415.848 404.679 412.846 406.699 409.359C409.394 404.756 409.356 401.5 411.9 399.292C412.949 398.394 415.232 397.608 416.466 397.234C422.866 395.475 431.062 392.892 440.754 387.54C445.058 385.183 448.389 382.601 451.046 379.645L451.158 379.532C458.381 371.674 460.215 362.505 457.221 354.384ZM430.388 368.792C413.997 377.849 403.106 376.875 394.649 382.302C387.463 386.942 391.692 396.935 386.491 400.527C380.054 404.981 361.08 400.227 336.568 408.311C316.359 415.01 303.448 434.208 267.034 434.208C230.547 434.208 218.01 415.084 197.502 408.311C172.99 400.227 153.979 404.981 147.579 400.527C142.377 396.935 146.606 386.942 139.421 382.302C130.963 376.838 120.073 377.811 103.682 368.792C93.2404 363.029 99.153 359.473 102.633 357.789C161.987 329.086 171.418 284.701 171.867 281.371C172.391 277.404 172.952 274.26 168.574 270.181C164.345 266.251 145.521 254.613 140.319 250.983C131.674 244.958 127.894 238.932 130.701 231.522C132.647 226.396 137.437 224.487 142.49 224.487C144.062 224.487 145.671 224.674 147.204 225.011C156.673 227.069 165.879 231.822 171.193 233.094C171.942 233.282 172.578 233.357 173.139 233.357C175.983 233.357 176.956 231.934 176.769 228.678C176.171 218.312 174.674 198.104 176.32 179.205C178.566 153.233 186.948 140.359 196.903 128.945C201.693 123.481 224.148 99.7544 267.072 99.7544C310.109 99.7544 332.451 123.481 337.241 128.945C347.196 140.322 355.579 153.195 357.824 179.205C359.471 198.104 358.049 218.312 357.375 228.678C357.151 232.084 358.198 233.357 361.005 233.357C361.566 233.357 362.24 233.282 362.951 233.094C368.265 231.822 377.471 227.069 386.94 225.011C388.488 224.668 390.069 224.493 391.654 224.487C396.707 224.487 401.497 226.433 403.443 231.522C406.25 238.932 402.433 244.958 393.826 250.983C388.624 254.613 369.799 266.252 365.571 270.181C361.192 274.223 361.754 277.366 362.277 281.371C362.689 284.701 372.157 329.086 431.511 357.789C434.879 359.473 440.829 363.029 430.388 368.792Z" fill="black"/>
</svg>
