<svg width="48" height="48" viewBox="0 0 534 534" fill="none" xmlns="http://www.w3.org/2000/svg">
<path d="M266.999 533.665C414.275 533.665 533.665 414.275 533.665 266.999C533.665 119.724 414.275 0.333313 266.999 0.333313C119.724 0.333313 0.333313 119.724 0.333313 266.999C0.333313 414.275 119.724 533.665 266.999 533.665Z" fill="url(#paint0_linear_1_3)"/>
<path d="M111.316 264.687L290.891 190.699C308.618 182.992 368.733 158.329 368.733 158.329C368.733 158.329 396.479 147.539 394.167 173.743C393.396 184.533 387.23 222.298 381.065 263.146L361.797 384.147C361.797 384.147 360.255 401.874 347.153 404.957C334.051 408.04 312.471 394.167 308.618 391.084C305.535 388.772 250.814 354.09 230.776 337.134C225.381 332.51 219.215 323.261 231.547 312.471C259.292 287.038 292.433 255.439 312.471 235.4C321.72 226.152 330.968 204.572 292.433 230.776L183.763 303.994C183.763 303.994 171.431 311.701 148.31 304.764C125.189 297.828 98.2136 288.579 98.2136 288.579C98.2136 288.579 79.7166 277.019 111.316 264.687Z" fill="white"/>
<defs>
<linearGradient id="paint0_linear_1_3" x1="355.909" y1="89.2425" x2="222.576" y2="400.332" gradientUnits="userSpaceOnUse">
<stop stop-color="#37AEE2"/>
<stop offset="1" stop-color="#1E96C8"/>
</linearGradient>
</defs>
</svg>
