<svg width="48" height="48" viewBox="0 0 534 534" fill="none" xmlns="http://www.w3.org/2000/svg">
<path d="M121.577 0.597085C109.682 1.01988 94.3531 1.95044 87.3856 3.35672C76.7499 5.5045 66.7059 8.76083 58.3531 13.018C48.5393 18.0195 39.7436 24.4008 32.1488 31.9837C24.5366 39.5813 18.1297 48.3852 13.1082 58.2137C8.86288 66.5217 5.60835 76.5044 3.45144 87.0799C2.01685 94.1177 1.06804 109.561 0.637936 121.532C0.480425 126.245 0.392446 130.961 0.374028 135.677L0.332031 398.283C0.332031 401.192 0.420625 407.525 0.594128 412.424C1.01693 424.317 1.94743 439.646 3.35463 446.614C5.50149 457.248 8.75878 467.293 13.0151 475.646C18.0174 485.461 24.3977 494.255 31.9807 501.851C39.5783 509.462 48.3831 515.869 58.2106 520.891C66.5196 525.135 76.5024 528.391 87.0769 530.548C94.1147 531.982 109.559 532.931 121.53 533.36C126.421 533.536 132.754 533.625 135.674 533.625L398.28 533.667C401.19 533.667 407.523 533.58 412.42 533.405C424.314 532.981 439.644 532.052 446.611 530.645C457.246 528.497 467.291 525.24 475.643 520.984C485.457 515.982 494.253 509.601 501.848 502.019C509.459 494.42 515.866 485.617 520.888 475.789C525.132 467.48 528.389 457.498 530.545 446.922C531.98 439.885 532.928 424.439 533.358 412.469C533.534 407.577 533.622 401.246 533.622 398.325L533.665 135.719C533.665 132.81 533.577 126.476 533.402 121.579C532.978 109.685 532.049 94.356 530.642 87.3885C528.495 76.7528 525.238 66.7089 520.981 58.3561C515.98 48.5414 509.598 39.7466 502.016 32.1508C494.418 24.5405 485.613 18.1327 475.786 13.1112C467.477 8.86583 457.495 5.61042 446.919 3.45442C439.882 2.01983 424.437 1.07103 412.467 0.641841C407.575 0.465599 401.243 0.377041 398.322 0.377041L135.716 0.335017C131.002 0.352829 126.288 0.440187 121.577 0.597085Z" fill="url(#paint0_linear_1_18)"/>
<path fill-rule="evenodd" clip-rule="evenodd" d="M359.452 302.103C354.702 299.726 331.348 288.237 326.992 286.653C322.639 285.068 319.472 284.276 316.306 289.03C313.139 293.784 304.035 304.48 301.264 307.649C298.493 310.818 295.723 311.216 290.973 308.838C286.222 306.461 270.917 301.446 252.773 285.267C238.65 272.677 229.117 257.124 226.346 252.371C223.576 247.616 226.051 245.047 228.43 242.679C230.566 240.552 233.18 237.133 235.555 234.36C237.93 231.586 238.722 229.606 240.305 226.437C241.889 223.267 241.097 220.494 239.908 218.117C238.722 215.741 229.222 192.367 225.263 182.859C221.407 173.599 217.491 174.852 214.576 174.707C211.807 174.569 208.638 174.539 205.471 174.539C202.304 174.539 197.158 175.728 192.803 180.482C188.449 185.236 176.178 196.725 176.178 220.098C176.178 243.471 193.2 266.052 195.574 269.222C197.95 272.392 229.071 320.357 276.722 340.926C288.056 345.819 296.904 348.741 303.802 350.93C315.182 354.544 325.538 354.034 333.723 352.811C342.849 351.448 361.828 341.323 365.786 330.231C369.743 319.138 369.743 309.629 368.556 307.649C367.37 305.669 364.203 304.48 359.452 302.103ZM272.778 420.408H272.714C244.36 420.397 216.551 412.783 192.29 398.39L186.52 394.966L126.715 410.65L142.678 352.36L138.921 346.383C123.104 321.233 114.75 292.164 114.762 262.316C114.796 175.222 185.681 104.364 272.841 104.364C315.046 104.38 354.72 120.833 384.553 150.691C414.387 180.549 430.807 220.237 430.791 262.445C430.755 349.546 359.871 420.408 272.778 420.408ZM407.26 128.002C371.367 92.0785 323.633 72.2855 272.777 72.2656C167.99 72.2656 82.706 157.517 82.6635 262.304C82.6498 295.8 91.4039 328.498 108.04 357.318L81.0691 455.801L181.851 429.374C209.618 444.514 240.882 452.493 272.7 452.506H272.779C377.556 452.506 462.847 367.244 462.89 262.455C462.909 211.674 443.154 163.925 407.26 128.002Z" fill="white"/>
<defs>
<linearGradient id="paint0_linear_1_18" x1="266.998" y1="533.667" x2="266.998" y2="0.334354" gradientUnits="userSpaceOnUse">
<stop stop-color="#25CF43"/>
<stop offset="1" stop-color="#61FD7D"/>
</linearGradient>
</defs>
</svg>
